<?xml version="1.0" standalone="no"?>
<!DOCTYPE svg PUBLIC "-//W3C//DTD SVG 20010904//EN"
 "http://www.w3.org/TR/2001/REC-SVG-20010904/DTD/svg10.dtd">
<svg version="1.0" xmlns="http://www.w3.org/2000/svg"
 width="260.000000pt" height="260.000000pt" viewBox="0 0 260.000000 260.000000"
 preserveAspectRatio="xMidYMid meet">
<metadata>
Created by potrace 1.11, written by Peter Selinger 2001-2013
</metadata>
<g transform="translate(0.000000,260.000000) scale(0.100000,-0.100000)"
fill="#000000" stroke="none">
<path d="M1228 2180 l-110 -111 100 -99 c95 -95 129 -120 115 -83 -4 11 -3 14
5 9 7 -4 12 -2 12 3 0 6 -4 11 -10 11 -5 0 -10 4 -10 10 0 6 9 6 23 1 12 -5
27 -9 32 -10 43 -8 95 -25 95 -32 0 -5 3 -8 8 -8 22 4 42 -2 37 -11 -3 -5 0
-8 7 -5 17 7 129 -66 121 -78 -3 -6 -2 -7 4 -4 10 6 37 -18 88 -78 43 -51 46
-55 38 -55 -4 0 -3 -4 4 -8 22 -14 81 -154 88 -210 2 -15 4 -27 5 -27 1 0 4
-13 8 -30 12 -63 4 -267 -12 -293 -3 -5 -7 -21 -10 -36 -6 -33 -60 -147 -84
-179 -9 -12 -47 -52 -83 -88 -53 -52 -89 -77 -170 -117 -57 -28 -129 -56 -159
-63 -64 -14 -200 -18 -200 -5 0 5 -6 4 -12 -1 -11 -7 -221 -10 -238 -3 -3 1
-9 1 -15 0 -28 -7 -475 -4 -475 4 0 5 -6 4 -12 -1 -7 -5 -66 -8 -130 -8 -92 1
-118 -1 -122 -12 -3 -8 -2 -12 3 -9 9 6 71 -61 71 -76 0 -4 6 -8 14 -8 32 0
21 -30 -29 -80 -30 -30 -52 -56 -50 -60 2 -4 25 -6 50 -5 25 0 45 -4 45 -10 0
-6 3 -7 8 0 10 14 32 17 32 4 0 -8 4 -8 14 0 10 8 16 9 21 1 3 -6 13 -7 23 -2
21 9 43 9 60 -2 7 -4 18 -4 25 1 15 10 38 10 55 0 7 -5 12 -3 12 4 0 8 4 8 13
2 6 -6 21 -8 32 -6 11 2 34 4 50 3 78 -4 695 -2 736 2 26 3 52 9 59 13 6 4 14
4 17 1 3 -3 12 -1 19 5 8 6 21 9 29 5 8 -3 15 -2 15 3 0 10 46 25 72 24 10 0
15 3 13 7 -7 11 24 22 37 13 7 -3 8 -1 4 5 -4 7 -1 12 6 12 8 0 36 14 62 30
26 17 52 27 58 24 7 -4 8 -2 4 4 -4 6 5 19 21 28 15 10 40 29 55 42 14 13 30
24 35 23 4 -1 8 5 8 12 1 6 6 11 13 9 7 -1 11 2 10 7 -2 5 10 20 25 35 15 14
25 26 22 26 -3 0 0 6 7 14 7 8 16 12 20 10 4 -2 8 6 10 18 2 13 9 22 16 20 8
-1 11 2 7 8 -8 13 14 42 26 34 5 -3 8 -2 7 3 -4 14 25 83 34 83 5 0 6 5 3 10
-3 6 -1 10 6 10 7 0 10 3 6 6 -3 4 2 23 13 44 11 21 16 40 13 44 -4 3 -1 6 6
6 7 0 10 4 7 8 -3 5 2 31 10 58 16 53 21 81 23 132 1 22 5 31 13 26 7 -5 8 -3
2 7 -13 21 -13 93 0 101 7 5 7 8 0 8 -6 0 -12 17 -13 38 -3 51 -8 89 -22 142
-6 25 -11 55 -12 67 -1 11 -5 19 -9 16 -5 -2 -8 2 -8 9 0 7 -14 42 -30 76 -17
35 -27 69 -23 74 3 6 2 9 -3 5 -5 -3 -27 22 -48 56 -35 54 -205 237 -221 237
-4 0 -21 11 -39 25 -18 14 -38 25 -44 25 -7 0 -12 5 -12 10 0 6 -4 10 -9 10
-4 0 -39 14 -77 32 -38 17 -73 33 -79 34 -40 12 -103 27 -120 29 -11 2 -21 4
-22 5 -2 2 -8 3 -15 4 -8 1 -12 18 -11 49 1 26 -1 47 -4 47 -3 0 -55 -50 -115
-110z"/>
<path d="M956 2157 c-345 -89 -622 -392 -685 -747 -9 -53 -7 -234 3 -295 3
-16 12 -55 21 -85 9 -30 18 -65 18 -77 1 -11 5 -19 9 -16 5 2 8 -2 8 -9 0 -21
83 -179 107 -205 6 -7 13 -18 15 -24 2 -6 26 -11 53 -11 28 0 56 -5 64 -11 12
-9 13 -9 7 0 -5 10 11 13 69 12 54 -1 73 -4 69 -12 -5 -8 -2 -7 7 0 7 7 30 13
51 13 21 0 38 2 38 5 0 3 -15 19 -32 36 -18 17 -32 35 -31 40 2 5 -1 9 -7 9
-14 0 -81 91 -74 101 3 5 1 9 -4 9 -11 0 -63 105 -71 142 -1 4 -8 26 -16 49
-8 23 -13 45 -10 49 3 5 0 10 -7 12 -18 6 -18 300 0 306 6 2 10 7 7 12 -7 12
16 71 26 64 5 -3 6 2 3 10 -8 20 24 78 38 70 7 -4 8 -3 4 4 -12 19 54 109 69
94 4 -4 5 -2 3 5 -4 13 81 93 100 93 6 0 12 3 12 8 0 4 9 13 21 20 17 11 20
11 14 0 -4 -8 -1 -7 7 2 18 20 78 53 78 43 0 -4 4 -2 9 5 4 7 18 14 29 15 12
1 22 5 22 9 0 4 8 8 18 9 9 0 34 8 55 17 l39 17 -62 62 c-34 34 -59 67 -55 73
3 6 11 7 17 4 6 -4 8 -2 5 3 -6 10 25 46 34 41 2 -2 3 -1 1 1 -1 3 8 15 20 28
l22 24 -33 -3 c-18 -1 -66 -11 -105 -21z"/>
<path d="M816 1736 c-50 -49 -20 -126 49 -126 55 0 87 58 60 110 -8 16 -21 30
-28 30 -6 0 -22 3 -34 6 -15 4 -29 -2 -47 -20z"/>
<path d="M899 1465 c-3 -2 -30 -7 -60 -11 -29 -4 -61 -8 -69 -10 -8 -1 -23 -3
-32 -3 -30 -2 -20 -29 12 -36 59 -13 60 -17 60 -241 l0 -205 -46 -19 c-74 -32
-52 -41 95 -41 160 0 190 15 96 46 l-30 10 -1 248 c-1 220 -7 281 -25 262z"/>
<path d="M1460 1460 c-48 -9 -87 -31 -140 -79 -24 -23 -45 -41 -46 -41 0 0 1
28 3 61 l4 62 -58 -7 c-32 -5 -75 -9 -96 -11 -52 -4 -69 -21 -33 -35 15 -5 31
-10 35 -10 29 0 35 -36 36 -219 1 -102 -1 -196 -3 -208 -3 -17 -15 -26 -44
-33 -27 -8 -38 -16 -36 -26 2 -13 24 -15 131 -15 70 0 132 0 137 1 23 0 7 22
-27 37 -21 8 -41 20 -44 25 -11 18 -4 302 9 324 36 67 132 109 195 85 48 -19
60 -65 60 -243 0 -171 -3 -182 -53 -192 -20 -3 -30 -12 -30 -23 0 -16 12 -18
137 -17 148 2 174 12 106 40 -21 9 -41 21 -45 28 -4 6 -8 93 -8 193 0 206 -8
243 -63 280 -37 25 -77 32 -127 23z"/>
<path d="M2269 655 c-1 -6 -2 -26 -3 -45 l-1 -35 -117 -3 -118 -3 -70 -69
c-39 -38 -109 -94 -155 -126 -47 -32 -83 -59 -81 -61 4 -4 311 -6 331 -2 6 1
14 1 18 0 25 -4 137 -4 142 0 3 3 17 4 32 2 25 -4 28 -8 27 -44 -2 -41 8 -43
34 -7 7 10 18 16 23 13 5 -4 9 -2 9 3 0 16 62 77 74 74 6 -2 8 0 4 4 -4 4 11
24 34 45 l42 38 -20 22 c-10 12 -38 40 -60 63 -104 103 -144 140 -145 131z"/>
</g>
</svg>
